<?xml version="1.0" encoding="utf-8"?>
<!-- Generator: Adobe Illustrator 23.0.4, SVG Export Plug-In . SVG Version: 6.00 Build 0)  -->
<svg version="1.1" id="Ebene_1" xmlns="http://www.w3.org/2000/svg" xmlns:xlink="http://www.w3.org/1999/xlink" x="0px" y="0px"
	 viewBox="0 0 592.44 252.28" style="enable-background:new 0 0 592.44 252.28;" xml:space="preserve">
<style type="text/css">
	.st0{clip-path:url(#SVGID_2_);}
	.st1{clip-path:url(#SVGID_2_);fill:#FFFFFF;}
</style>
<g>
	<defs>
		<rect id="SVGID_1_" y="0" width="592.44" height="252.28"/>
	</defs>
	<clipPath id="SVGID_2_">
		<use xlink:href="#SVGID_1_"  style="overflow:visible;"/>
	</clipPath>
	<path class="st0" d="M408.66,161.47c-3.54,0.72-4.63,3.12-5.17,5.48c-0.75,3.3-2.49,11.28-3.63,16.78
		c-1.68-3.17-6.38-7.38-14.06-7.38c-3.71,0-6.91,0.72-9.66,1.83c0-0.01,0-0.03,0-0.04c0-5.58-3.67-9.33-7.52-10.79
		c-1.71-4.86-6.48-7.59-10.3-7.63c-8.62-0.09-11.83,7.08-11.83,11.36c0,3.44,1.25,5.44,2.05,6.6h-3.97c-1.38,0-3.72,0.53-5,2.72
		c-2.13-2.42-5.38-4.04-9.49-4.04c-4.15,0-7.48,1.21-9.49,2.57c-0.73-1.51-2.47-2.34-3.84-2.54c-0.56-2.79-3.11-4.38-6.18-5.62
		c-0.19-0.08-0.38-0.15-0.57-0.22c-0.04-3.49-2.84-5.33-6.29-6.72c-4.75-1.91-10.71-2.42-12.4-2.42c-13.04,0-24.78,7.36-24.78,22.09
		c0,8.55,4.54,13.19,9.14,16.16c1.85,3.27,4.59,5.52,7.3,7.22c0.33,0.21,0.65,0.4,0.96,0.59c-0.51,1.44-2.2,1.72-4.03,1.72
		c-2.48,0-4.34-0.8-6.73-1.75c-2.02-0.8-3.26-1.57-4.83-1.57c-2.33,0-4.1,1.58-4.89,3.03c-1.04,1.91-1.77,3.37-3.16,6.03
		c-0.17,0.33-0.32,0.6-0.45,0.84c0-0.16,0.02-0.33,0.02-0.49c0-3.67-1.17-7.36-4.26-10.22c-1.03-0.95-2.38-1.8-3.76-2.54
		c-0.1-0.22-0.19-0.44-0.3-0.65c0.84,0.32,1.8,0.6,2.87,0.6c1.31,0,3.88-0.69,5.09-3.58c0.88-2.12,1.36-3.68,1.92-5.29
		c0.24-0.7,0.62-2.68-0.37-4.5c-1.22-2.26-3.7-3.65-6.24-4.5c-0.03-0.76-0.19-1.61-0.63-2.43c-2.95-5.48-13.3-5.85-13.87-5.85
		c-7.09,0-11.17,2.23-13.95,4.45c-0.45-1.82-2.17-4.38-5.74-4.38c-0.79,0-1.84,0.2-2.63,0.37c-2.13,0.45-3.84,0.8-5.88,1.21
		c-4.15,0.83-4.86,3.52-5.28,5.37c-0.21,0.01-0.42,0.03-0.61,0.05c0.07-0.42,0.09-0.72,0.09-1.22c0-3.51-2.62-5.8-5.95-5.8
		c-0.85,0-1.47,0.17-2.2,0.32c-2.54,0.54-3.88,0.82-6.17,1.27c-2.55,0.5-4.47,1.55-5.3,5.11c-1.19-4.33-8.12-6.76-15.36-6.76
		c-3.09,0-9.26,0.99-13.78,5.38c-0.96-2.31-2.83-4.03-5.93-4.03h-5.61c-1.09,0-1.85,0.03-3.06,0.69c-1.17-0.69-3.85-2.01-7.48-2.01
		c-4.37,0-9.3,1.51-14.1,6.44c-0.29-0.71-1.01-1.87-2.49-2.69c-1.64-0.91-3.34-1.83-5.54-3c-1.29-0.68-4.05-1.81-7.79,1.58
		c-1.83-1.19-4.79-2.36-8.14-2.36c-2.65,0-10.25,0.44-16.47,8.89c-0.13-0.07-0.25-0.14-0.39-0.21c-1.83-4.15-6.7-8.68-14.92-8.68
		c-3.59,0-6.63,0.71-9.19,1.72c-1.29-2.35-3.34-4.51-6.44-6.04c-2.26-4.89-7.44-9.23-18.34-9.23c-7.4,0-11.29-0.02-12.28-0.02
		c-5.04,0-6.42,2.98-6.94,5.43c-1.23,5.74-8.28,39.01-10.61,49.97c-1.26,5.94,2.8,8.02,5.89,8.02c0.28,0,0.54,0,0.8,0
		c-0.57,5.1,3.17,6.93,6.06,6.93c3.32,0,5.05-0.02,7.63-0.02c3.66,0,5.65-2.6,6.19-5.15c1.04-4.9,2.74-12.9,3.43-16.2
		c1.58,0,3.94-0.12,6.66-0.66c0.38,3.28,1.49,6.65,2.92,8.84c1.5,2.29,3.54,4.14,6.04,5.45c0.26,0.53,0.54,1.04,0.83,1.48
		c3.08,4.69,8.37,7.6,15.47,7.6c2.28,0,4.31-0.23,6.17-0.57c0,0.05-0.01,0.09-0.01,0.14c0,0.67,0.3,1.56,0.69,2.36
		c0.64,1.3,1.81,2.56,4.27,3.61c0.63,0.27,1.27,0.51,1.92,0.73c0,0.08-0.01,0.16-0.01,0.24c0,0.67,0.3,1.56,0.69,2.35
		c0.64,1.3,1.81,2.56,4.27,3.61c5.25,2.23,11.37,2.79,14.23,2.79c3.67,0,11.13-0.62,16.33-5.82c5.64-5.64,6.77-13.24,7.5-17.6
		c0.2,0.09,0.41,0.16,0.61,0.25c2.22,4.92,6.35,7.95,12.11,7.95c2.75,0,6.52-0.95,9.06-2.66c0.87,1.57,2.94,2.66,4.74,2.66
		c1.83,0,2.52-0.56,9.05-3.04c0.77-0.29,1.04-0.45,1.38-0.69c1.68,1.12,7.89,3.73,15.16,3.73c7.25,0,13.21-3.03,16.35-7.27
		c1.32,3.22,5.2,7.27,11.4,7.27c3.62,0,6.7-1,9.8-3c0.67,1.42,2.85,3,4.87,3c1.04,0,2.45-0.54,2.67-0.63
		c1.82-0.73,3.44-1.32,6.2-2.42c0.69-0.28,1.04-0.41,1.38-0.69c0.8,0.69,7.2,3.71,14.58,3.71c11.4,0,18.38-6.12,20.19-14.59
		c0.5,1.68,2.04,3.42,5.08,4.68c0.35,0.15,0.9,0.36,1.59,0.61c0,0.13-0.01,0.25-0.01,0.39c0,2.03,1.48,4.36,5.28,5.93
		c1.72,0.71,7.79,3.01,14.79,3.01c1.97,0,5.16-0.33,8.56-1.35c-0.22,1.02-0.42,1.99-0.59,2.84c-0.61,3.01,1.14,6.76,5.27,6.76
		c0.58,0,1.03-0.07,1.67-0.21c-0.03,0.12-0.05,0.26-0.08,0.38c-0.61,3.01,1.14,6.76,5.27,6.76c0.65,0,1.14-0.09,1.93-0.26
		c2.89-0.62,3.52-0.82,6.09-1.26c3.65-0.62,5.46-1.92,6.29-5.66c0.87-3.92,1.05-4.92,1.79-8.32c5.67,1.13,12.2-0.88,16.62-4.9
		c1.12-1.02,2.16-2.17,3.12-3.39c0.54,0.17,1.11,0.3,1.73,0.3h1.35c-0.01,0.04-0.01,0.07-0.02,0.11c-0.63,3.07,1.62,6.83,5.54,6.83
		h8.19c0.7,0,4.35-0.45,5.24-4.37c0.37-1.65,0.72-3.25,1.07-4.84c0.69,0.52,1.44,0.99,2.25,1.41c2.62,5.19,7.99,9.12,16.78,9.12
		c6.54,0,14.56-2.72,17.83-5.62c2.04,4.16,6.53,5.66,11.1,5.66c3.1,0,8.66-0.98,10.8-2.92c0.83-0.76,1.2-1.26,1.5-1.79
		c2.79,2.73,7.7,4.71,12.6,4.71c5.43,0,10.17-1.26,12.85-2.41c3.62-1.55,5.68-2.61,7.08-4.85c0.44-0.71,0.68-2.08,0.68-2.65
		c0-1.07-0.34-1.75-0.74-2.72c-0.41-0.97-0.97-2.33-1.84-4.63c-0.54-1.41-1.96-2.71-2.26-2.78c5.85-3.08,9.67-8.74,9.67-15.76
		c0-5.57-2.62-10.97-8.28-13.65c-2.19-4.85-7-8.53-14.86-8.68c-4.5-0.09-8.38,1.08-11.62,2.81c0.29-1.32,0.59-2.65,0.89-4.03
		c0.29-1.33,0.39-1.84,0.39-3.14c0-1.29-1-5.27-5.34-5.27c-0.46,0-1.09,0.08-1.66,0.18c0.09-0.56,0.13-1.07,0.13-1.85
		c0-1.29-1-5.27-5.34-5.27c-0.51,0-1.26,0.1-1.87,0.22C413.66,160.41,412.37,160.72,408.66,161.47 M590.81,106.35
		c0-51.61-27.05-93.3-47.88-93.99c-4.52-0.15-5.18,1.79-6.29,7.69c-0.81,4.29-0.99,4.94-2.01,8.48
		c-3.14-4.69-10.02-13.34-18.85-13.2c-9.87,0.16-0.54,39.58-22.12,43.45c2.14-25.86-2.33-40.33-11.4-42.78
		c1.29-6.52-2.67-12.76-5.77-13.39c-1.68,1.13-0.32,1.63-1.41,2.72c-2.63,3.52-2.29,7.6-2.56,7.94c-4.4-0.02-5.35,0.18-7.76,0.5
		c-3.34-5.06-4.63-10.02-5.01-10.07c-4.33-0.48-7.24,6.5-6.19,13.66c-2.65,1.93-9.58,9.52-10.73,11.57
		c-1.24,4.17,1.95,3.81-3.66,11.1c-1.3,1.69-3.57,3.98-5.05,5.52c-1.71,1.18-2.55,1.6-3.47,3.01c-0.86,1.32-0.84,3.68-0.43,5.39
		c0.5,2.09,1.42,4.82,3.14,6.39c3.61,3.29,9.46,3.19,12.44-1.46c3.33-2.29,5.52-2.46,7.09-4.04c0,9.9-16.3,18.32-20.07,30.13
		c-1.52,4.77-1.8,11.19-1.03,16.2c-0.63,1.03-6.08,3.16-12,5.04c-5.04,1.6-8.73,1.44-11.45,3.73c-2.28,1.92-1.61,5.87-0.84,8.45
		c2.79,4.01,5.26,17.86,10.35,19.64c1.92,7.91,3.86,10.38,6.71,10.38c4.13-0.12,6.95,1.8,9.41,1.81c1.38,0.01,5.19-1.16,6.21-2.35
		c1.89-2.35-2.11-6.99-3.99-10.27c-0.71-1.24-4.12-1.15-4.46-1.05c-1.12-2.39-1.08-7.24-0.25-9.59c0.66-1.96,7.93-2.4,10.64-1.01
		c13.61,20.21,44.19,17.16,52.36,27.37c-5.04,5.17-4.47,8.27,3.51,34.4c0,4.08-6.3,8.55-14.36,16.83c-8.05,8.28-5.51,7.23-7.55,8.72
		c-2.04,1.5-4.52,5.69-4.64,10.52c1.55,1.6,8.94,1.85,16.77-0.84c1.94-0.83,0.27-3.12,0.95-4.67c1.78-1.98,0.98-5.04,1.78-6.12
		c1.82-2.47,2.64-2.51,5.24-4.89c4.9-4.48,10.89-8.23,11.77-9.22c1.28-1.51,1.13-2.83,1.36-4.2c0.9,1.69,1.52,2.16,1.98,7.6
		c-1.37,7.79-8,17.38-11.3,20.11c-6.37,4.56-8.63,10.41-8.56,13.96c0.83,1.71,6.12,2.56,18.36-1.47c1.96-0.73,0.88-5.01,2.52-4.45
		c4.51-10.81,10.04-20.71,14.7-25.55c1.22-9.34-5.04-16.64-1.11-24.62c12.57-3.52,19.92-16.77,21.9-23.08
		c1.67,0.57,1.96,2.43,1.13,4.65c-2.65,7.08-4.97,9.49-4.97,16.32c0,11.49,5.51,15.39,5.51,24.25c0,7.3-2.26,8.02-2.96,8.02
		c-3.37,0-3.5-3.13-3.65-2.84c-1.26,2.39-0.06,5.74,1.93,7.8c1.53,1.58,8.22,4.77,15.41-2.27c3.56-3.48,5.03-8.86,5.03-14.96
		c0-4.52-3.85-11.28-3.85-16.12c0-8.97,6.96-18.41,3.14-27.35c-2.25-5.26-6.65-9.03-13.98-6.97c1.03-15.57-8.1-24.33-12.48-27.58
		c5.03,1.27,11.9,9.43,20.88,4.96c0.32-0.16,0.67-0.44,0.83-0.68c3.43,2.44,5.6,5.05,6.94,7.44c0.8,1.43,1.02,2.82,1.29,3.94
		c0.06,0.27,0.35,0.96,0.45,0.42c-0.09,0.52,2.94-8.48,0.44-15.14c2.7,6.5,2.99,13.08,2.08,17.79c-0.11,0.55-0.01,0.46,0.32,0.21
		c3.24-2.37,4.95-17.23,3.09-25.82c0.26-0.09,0.88-0.39,0.87-0.39c0.27,0.71,0.6,1.8,0.85,3.33c3.4,20.61-2.81,48.7-9,54.1
		c-2.28,1.98-1.76,3.24,0.99,1.89C579.56,165.56,590.81,139.02,590.81,106.35"/>
	<path class="st1" d="M575.23,112.07c0.17,0.56,0.38,1,0.68,2.33c2.09-0.27,3.5-3.65,3.5-10.92c0-15.85-3.68-32.65-15.6-47.27
		c-6.4-7.85-12.62-9.41-15.03-14.21c-0.44-0.88-1.06-2-1.32-3.45c-0.27-1.51-1.11-2.06-0.73,0.38c1.48,9.42,9.43,11.41,16.26,20.35
		c5.66,7.4,11.55,19.98,13.05,31.4C578.28,107.71,576.67,111.12,575.23,112.07 M572.85,104.99c0.14,0.74,1.18,0.69,1.06-0.07
		c-1.78-11.5-9.25-23.43-20.25-29.81c-6.73-3.9-13.6-8.42-14.22-16.2c-0.18-2.25-0.74-1.82-0.63,0.09
		c0.66,11.98,8.74,15.14,14.97,19.06C564.46,84.78,571.03,95.36,572.85,104.99 M568.26,130.64c0.14,1.5,0.2,3.09,0.17,4.76
		c-0.1,0.54,3.14-9.06,0.18-15.77c-1.51-3.43-3.72-6.83-6.79-9.89c-15.34-15.28-32.86-21.61-34.22-34.75
		c-0.32-3.07-1.34-1.49-1.15,0C530.02,102.29,565.48,100.44,568.26,130.64 M531.88,99.16c-1.25,2.84,10.91,22.5,26.09,24.58
		c0.67,0.09,1.68,0.03,1.78-0.15c-0.56-0.4-1.15-0.79-1.78-1.17C548.9,116.86,534.55,107.15,531.88,99.16 M544.31,210.46
		c2.53,7.39,17.96,1.32,17.96-13.95c0-4.65-4.62-10.44-3.48-18.52c0.92-6.62,3.5-15.65,2.7-20.73c-0.8-5.08-3.06-9-11.13-8.45
		c0.02,0.6-0.15,1.53-0.34,2.55c9.09,3.12-2.13,18.37-2.13,26.63c0,8.95,8.63,13.5,8.63,22.36
		C556.54,210.97,547.42,214.25,544.31,210.46 M429.55,198.49c0.92-3.33,3.26-9.32,9.16-9.33c1.87,0,2.74,1.34,2.76,2.99
		c0.03,3.05-2.3,4.74-5.06,5.49C434.05,198.26,431.37,198.46,429.55,198.49 M417.16,208.01c-0.02,4.43,1.11,8.36,3.48,11.07
		c2.37,2.7,6.22,4.33,10.95,4.31c8.23-0.04,13.94-3.42,15.18-4.32c0.86-0.62,1.09-1.37,0.66-2.22c-0.8-1.6-1.27-3.17-2.02-5.01
		c-0.07-0.16-0.52-1.12-1.4-1.08c-1.75,0.09-5.55,3.14-9.93,3.13c-5.72-0.09-5.76-3.56-5.9-6.3c0-0.13,0-0.26,0-0.39
		c5.66-0.04,24.11-0.63,24.32-15.61c-0.01-6.68-4.83-11.16-12.4-11.16C427.18,180.45,417.22,192.29,417.16,208.01 M35.62,181.52
		c-0.1,6.43-3.66,8.88-10.49,9l-1.31,0.01l2.85-13.57l2.6,0.01C33.34,177.11,35.54,177.55,35.62,181.52 M47.46,179.72
		c0.04-5.44-2.18-8.86-5.45-10.68c-3.27-1.82-7.46-2.19-11.64-2.2H18.8c-1.07,0-1.95,0.5-2.23,1.75
		c-0.27,1.25-10.71,50.43-10.71,50.43c-0.1,0.4-0.18,0.96-0.18,1.35c0,0.4,0.11,1.69,2.01,1.69h7.58c1.13,0,1.91-0.36,2.23-1.76
		c0.33-1.46,4.16-19.66,4.16-19.66l3.38,0.01C36.87,200.62,47.36,194.35,47.46,179.72 M66.8,192.14c0.03,3.05-2.3,4.74-5.06,5.49
		c-2.35,0.63-5.03,0.83-6.85,0.86c0.92-3.33,3.26-9.32,9.16-9.33C65.91,189.15,66.78,190.5,66.8,192.14 M77.85,191.59
		c-0.01-6.68-4.83-11.16-12.41-11.16c-12.93,0.01-22.89,11.85-22.95,27.57c-0.02,4.43,1.12,8.36,3.48,11.07
		c2.37,2.7,6.22,4.33,10.95,4.31c8.23-0.04,13.94-3.42,15.18-4.32c0.86-0.62,1.09-1.37,0.66-2.22c-0.8-1.6-1.27-3.17-2.02-5.01
		c-0.07-0.16-0.52-1.12-1.4-1.08c-1.75,0.09-5.55,3.14-9.93,3.13c-5.72-0.09-5.76-3.56-5.9-6.3c0-0.13,0-0.26,0-0.39
		C59.19,207.16,77.64,206.57,77.85,191.59 M102.98,191.42l-2.64,12.27c-1.25,5.81-4.15,9.71-8.56,9.65
		c-2.37-0.03-3.14-1.21-3.14-4.56c0-3.84,0.9-8.96,2.54-12.91c1.63-3.95,3.99-6.75,6.63-6.73
		C100.3,189.18,101.93,190.46,102.98,191.42 M115.79,188.97c1-1.9,1.85-2.74,2-3.86c0.03-0.64-0.44-1.24-0.95-1.5l-4.8-2.61
		c-0.29-0.11-0.69-0.52-1.49-0.56c-1.88,0.27-3.41,2.68-4.39,4.13c-1.7-1.81-4.22-4.17-9.14-4.13c-12.24,0.14-19.4,15.6-19.44,28.12
		c0.01,7.35,3.24,13.48,10.69,13.49c4.69-0.01,8.07-2.43,10.16-4.51c-0.51,2.53-0.78,5.03-1.5,7.02c-1.06,2.75-2.54,4.5-7.17,4.56
		c-6.1,0-9.46-3.01-11.49-3.2c-0.63-0.05-1.3,0.48-1.48,1.07l-2.41,5.69c-0.03,0.14-0.29,0.5-0.3,1.11c0.39,1.93,2.47,2.4,5.25,3.38
		c2.8,0.83,6.39,1.45,9.74,1.45c20.68-0.04,19.05-18.88,21.69-31.47l2.42-11.56C113.68,193.07,114.8,190.76,115.79,188.97
		 M141.01,191.45l-2.63,12.25c-1.07,4.81-3.94,10.27-9.03,10.19c-1.54-0.04-2.35-0.94-2.44-3.85c0-3.95,0.85-9.32,2.49-13.61
		c1.63-4.29,4.04-7.28,6.66-7.28C138.4,189.16,139.82,190.44,141.01,191.45 M153.54,184.5c0.07-0.28,0.17-0.65,0.18-1.11
		c-0.01-0.73-0.68-1.62-1.7-1.62h-6.17c-0.71-0.1-1.52,0.31-1.89,1.33l-0.36,0.88c-1.47-1.48-4.04-3.55-8.39-3.53
		c-10.72,0.11-19.34,13.49-19.36,29.21c0.01,8.33,3.21,13.72,9.52,13.74c5.74-0.01,9.6-3.39,11.81-5.75
		c0.07,1.14,0.2,2.27,0.38,3.02c0.31,1.3,0.39,2.42,1.88,2.72c0.62,0,1.24-0.29,1.24-0.29l6.26-2.42c0.24-0.12,1.4-0.36,1.47-1.64
		c-0.02-1.19-0.56-2.96-0.63-4.73c0-1.05,0.24-3.72,0.61-5.33L153.54,184.5z M182.73,185.78c0,0,0.23-0.7,0.21-0.91
		c-0.2-1.89-2.48-2.84-4.18-3.37c-2.15-0.67-4.55-1.07-6.9-1.07c-9,0-15.66,5.68-15.76,14.68c-0.06,5.71,2.92,7.6,7.16,9.88
		c4.23,2.28,7.19,2.61,7.14,5.28c-0.04,2.32-1.19,4.4-6.11,4.39c-4.92,0-8.54-2.74-9.93-2.81c-0.73-0.04-1.2,0.61-1.33,1.07
		c-0.13,0.46-1.56,4.55-1.65,4.9c-0.1,0.35-0.2,0.65-0.2,1.13c0,0.75,0.83,1.29,1.6,1.73c0.81,0.47,6.36,2.71,11.97,2.7
		c10.49-0.02,16.23-6.18,16.32-14.67c0.06-5.32-2.37-7.72-6.13-9.72c-3.77-2-8.25-2.83-8.17-5.83c0.05-2.05,1.26-4.01,5.25-4.01
		c3.17,0,5.81,2.12,7.66,2.26c0.41,0.03,1.1-0.39,1.38-1L182.73,185.78z M222.21,183.19c0.08-0.3,0.18-0.67,0.18-1.12
		c0-0.45-0.19-0.96-0.61-1.28c-0.42-0.32-1.27-0.39-2.2-0.2c-2.67,0.55-5.38,1.1-6.88,1.44c-1.06,0.24-1.54,0.68-1.76,1.65
		c-1.79,8.04-3.35,15.17-3.35,15.17c-1.13,5.67-3.96,14.84-10.28,14.66c-1.26-0.03-1.51-1.08-1.51-2.21c0-1.49,0.37-3.01,0.68-4.61
		l5.55-23.26c0.09-0.4,0.18-0.97,0.18-1.36c0-0.4-0.17-0.96-0.6-1.28c-0.43-0.32-1.31-0.38-1.91-0.25c-0.44,0.1-6.22,1.28-7.18,1.49
		c-1.06,0.22-1.52,0.63-1.76,1.65c-2.51,10.75-5.69,24.38-5.69,24.38c-0.48,1.98-0.88,4.13-0.88,6.29c0,4.38,2.97,9.06,8.73,9.04
		c5.65-0.02,9.62-3.73,12.19-6.55c0.1,1.3,0.22,2.86,0.42,3.56c0.45,1.64,0.43,2.62,1.93,2.98c0.17,0.04,0.55-0.07,0.73-0.14
		l6.6-2.57c0.24-0.12,1.41-0.38,1.47-1.64c0.07-1.26-0.7-2.46-0.71-4.84c-0.01-2.39,0.52-4.24,0.93-6.24L222.21,183.19z
		 M250.54,185.78c0.12-0.34,0.2-0.55,0.2-0.91c0.01-1.55-2.03-2.7-4.18-3.37c-2.15-0.67-4.67-1.07-6.9-1.07
		c-8.64,0-15.65,5.31-15.77,14.68c-0.07,5.74,2.78,7.53,7.16,9.88c5.04,2.71,7.19,2.66,7.14,5.28c-0.05,2.73-1.53,4.39-6.11,4.39
		c-4.7,0-8.59-2.77-9.93-2.81c-0.72-0.02-1.18,0.61-1.33,1.06c-0.15,0.45-1.57,4.61-1.66,4.91c-0.08,0.3-0.25,0.85-0.2,1.13
		c0.16,0.97,0.81,1.31,1.6,1.73c0.7,0.37,5.78,2.7,11.98,2.7c10.71,0,16.18-6.35,16.31-14.67c0.09-5.32-2.32-7.75-6.13-9.72
		c-4.17-2.17-8.27-2.87-8.17-5.83c0.08-2.58,1.87-4.01,5.26-4.01c3.08,0,5.86,2.18,7.67,2.26c0.5,0.02,1.09-0.39,1.37-1
		C248.85,190.41,250.42,186.13,250.54,185.78 M305.26,172.05c0.19-0.38,0.62-1,0.63-1.48c0.02-0.59-0.4-1.99-5.29-3.47
		c-2.83-0.86-6.17-1.59-9.06-1.59c-12.15,0-20.93,6.35-20.93,18.11c0,8.62,6.03,11.98,10.73,14.71c4.72,2.74,6.89,4.69,6.86,7.95
		c-0.05,5.16-3.56,6.9-8.15,6.97c-5.33,0.08-10.02-3.08-11.57-3.27c-0.82-0.1-1.26,0.51-1.59,1.13c-0.98,1.84-1.66,3.18-2.99,5.72
		c-0.26,0.5-0.64,0.97-0.64,1.49c0,0.92,0.97,1.43,1.9,2c2.9,1.46,8.92,3.04,13.47,3.06c11.8,0.05,21.75-6.72,21.79-19.2
		c0.01-5.12-2.18-8.3-4.85-10.43c-6.93-5.52-13.34-6.76-13.12-11.69c0.27-6.25,5.98-6.4,7.84-6.43c4.97-0.01,8.84,3.04,10.4,3.28
		c0.81,0.12,1.45-0.87,1.58-1.12C303.51,175.47,304.5,173.55,305.26,172.05 M328.27,194.49c0.01,3.98-0.69,9.03-2.38,13.12
		c-1.7,4.09-4.22,6.81-7.64,6.83c-1.86,0.01-3.22-0.68-4.06-1.16c0,0,1.42-6.83,2.61-12.29c1.26-5.79,4.66-11.08,8.56-11.06
		C326.95,189.93,328.26,191.14,328.27,194.49 M339.33,193c0-4.01-0.75-7.11-2.34-9.29c-1.59-2.18-4.06-3.28-7.02-3.27
		c-5.89,0-9.53,3.25-11.73,5.69c-0.13-1.36-0.21-2.38-0.37-2.97c-0.28-0.99-0.46-2.71-1.89-2.73c-0.59,0-1.07,0.25-1.2,0.28
		l-6.3,2.44c-0.25,0.11-1.4,0.35-1.47,1.64c0.02,1.19,0.56,2.95,0.63,4.72v0.85c0,0.83-0.04,1.83-0.3,2.99c0,0-5.73,26.97-8.9,41.91
		c-0.09,0.42-0.29,1-0.33,1.82c-0.01,0.19-0.01,0.43,0.1,0.79c0.11,0.36,0.63,0.76,1.04,0.76c0.41-0.01,1.13-0.2,1.46-0.27
		c3.11-0.62,4.79-0.99,6.85-1.39c1.22-0.24,1.77-0.59,2.06-1.98c0.45-2.12,2.81-13.1,2.81-13.1c1.26,0.69,3.16,1.51,6.22,1.49
		C333,223.24,339.31,205.68,339.33,193 M359.33,181.77h-14.53c-0.39,0-0.84-0.04-1.32,0.3c-0.48,0.35-0.59,0.85-0.68,1.32
		l-0.86,4.37c-0.06,0.28-0.17,1.11-0.17,1.11c-0.01,0.41,0.18,0.96,0.57,1.26c0.39,0.3,0.84,0.35,1.28,0.35h4.91l-6.12,28.92
		c-0.1,0.41-0.11,0.84-0.1,1.03c0.04,0.69,0.23,1.03,0.64,1.32c0.41,0.29,0.83,0.29,1.21,0.3h7.27c0.4-0.02,0.84,0.05,1.31-0.33
		c0.47-0.39,0.52-0.83,0.61-1.27c0,0,6.48-30.29,7.66-35.95c0.04-0.21,0.11-0.85,0.11-1.22c0-0.46-0.23-0.9-0.59-1.17
		C360.17,181.84,359.74,181.77,359.33,181.77 M365.16,171.03c0-4.29-3.71-7.25-7.32-7.25c-3.61,0-7.19,2.87-7.25,7.25
		c-0.06,4.14,3.29,7.34,7.25,7.34S365.16,175.18,365.16,171.03 M386.79,192.14c0.03,3.05-2.3,4.74-5.06,5.49
		c-2.35,0.63-5.03,0.83-6.85,0.86c0.92-3.33,3.26-9.32,9.16-9.33C385.89,189.15,386.77,190.5,386.79,192.14 M397.84,191.59
		c-0.01-6.68-4.83-11.16-12.41-11.16c-12.93,0.01-22.89,11.85-22.95,27.57c-0.02,4.43,1.12,8.36,3.48,11.07
		c2.37,2.7,6.22,4.33,10.95,4.31c8.23-0.04,13.94-3.42,15.18-4.32c0.86-0.62,1.09-1.37,0.66-2.22c-0.8-1.6-1.27-3.17-2.02-5.01
		c-0.07-0.16-0.52-1.12-1.4-1.08c-1.75,0.09-5.55,3.14-9.93,3.13c-5.72-0.09-5.76-3.56-5.9-6.3c0-0.13,0-0.26,0-0.39
		C379.18,207.16,397.62,206.57,397.84,191.59 M418.73,167.16c0.13-0.89,0.43-1.85,0.1-2.7c-0.37-0.94-1.43-0.61-2.37-0.42
		c0,0-3.07,0.61-6.85,1.4c-1.06,0.22-1.78,0.65-2.07,1.99c-2.22,10.33-8.67,40.08-8.67,40.08c-0.64,2.79-0.96,5.76-0.96,8.47
		c0,2.71,0.86,4.69,2.42,5.85c1.56,1.16,3.6,1.56,6,1.55c2.24,0,4.15-0.43,5.3-0.72c2.71-0.7,3.33-1.49,3.43-2.38
		c0.04-0.35-0.06-0.62-0.08-0.78c-0.32-2.44-0.69-4.71-0.79-5.52c-0.17-1.37-0.56-1.33-1.38-1.27c-0.88,0.07-1.5,0.51-2.9,0.55
		c-0.88,0.02-0.96-0.22-0.96-0.72c0-1.03,0.3-1.87,0.92-4.75L418.73,167.16z M587.32,106.95c0-42.75-25.74-90.18-43.54-90.18
		c-2.64,0-3.39,4.21-3.81,6.05c-5.23,22.69-14.69,47.87-40.55,54.19c-4.93,1.2-12.02,2.43-16.44-0.68
		c-0.35-0.25-1.31-0.96-1.85-1.72c-1.18-1.67-1.05-2.54-0.19-2.98c1.17,1.85,3.17,2.45,3.67,2.45c8.37-26.2,6.34-52.43-3.69-54.94
		c-0.91,0.88-1.01,1.05-2.13,1.48c-2.42-1.02-1.63-1.53-0.79-2.74c3.54-5.06-0.02-11.53-0.22-11.53c0.13,1.89-2.59,1.28-2.85,9.78
		c-9.95-1.24-14.47,1.44-16.43,1.7c-0.78,0.1,0.66-2.63,3.57-3.45c0.06-1.51-2.79-5.52-2.75-7.18c0.04-1.62-4.69,0.51-3.2,11.59
		c-1.61,0.77-3.99,2.72-7,6.52c-1.02,1.29-4.13,3.4-4.13,5.49c0.19,2.14,0.96,2.56-1.25,6.27c-2.23,3.74-6.08,7.77-8.39,10.11
		c-3.18,1.59-3.25,3.93-2.84,5.79c1.47-0.75,2.32-1.31,3.78-0.63c1.06,0.49,2.37,3.24,1.03,6.08c2.12,1.9,6.01,0.58,8.02-4.31
		c2.1-4.74,25.69-5.49,26.54-16.04c0.54-6.68-10.58,0.07-12.32-2.17c-0.01-7.56,2.1-7.26,7.9-6.76c2.2,0.19,0.55,1.03,2.09,2.2
		c0.94,0.72,4.94,0,4.46-1.64c-0.17-0.58,2.19-0.33,2.3,0.02c2.51,8.54,1.83,19.35-17.02,22.07c5.48,8.98-4.08,20.25-1.65,25.99
		c-6.08,0.18-10.88,4.54-14.37,4.47c2.52-3.09,5.39-7.73,1.28-6.38c-6.91,2.26-9.02,12.49-9.02,17.75c0,10.07,6.67,12.39,10.48,11.3
		c0-2.18,0.14-3.4,5.67-2.59c-1.59,3.99-1.7,6.39-2.27,7.97c-0.69,0.29-4.28,1.51-6.22,1.66c-10.73,0.81-15.1,1.83-18.74,1.89
		c-2.2,0.73-3.85,2.2-5.06,5.38c-0.58,1.54,0.89,4,1.09,6.69c0.39,5.45-0.11,11.34,0.68,14.09c0.58,2.02,1.36,5.55,4.47,5.7
		c5.64,0.27,5.53,2.76,10.79,1.11c2.09-0.66-0.19-4.43-1.7-7.06c-0.73-1.27-2.43-0.77-3.45-0.49c-1.92,3.69-2.77,4.73-3.56,3.99
		c-0.4-0.46,1.3-1.97,1.57-5.08c0.14-1.56-0.84-2.02-1.17-4.35c-0.45-3.2-0.23-7.68,0.8-9.9c9.8-3.42,16.32-0.5,28.66-0.39
		c11.45-3.68,13.32-8.7,14.93-7.55c0.73,0.52,0.21,4.84-12.32,10.56c1.47,9.27,13.8,14.35,53.5,17.43c3.33-3.29,4-3.69,3.79-5.17
		c-0.4-2.88-0.34-4.04,1.45-2.24c2.36,2.39,0.4,5.22-1.37,7.63c-6.32,8.61-9.67,14.75-10.62,20.33c-0.57,3.31-0.02,5.99,0.99,8.84
		c2.14,6.05,6.5,16.89,6.47,28.14c-1.16,6.82-6.15,14.94-11.22,20.51c-0.55,0.61-0.96,1.44-1.73,1.77c-3.27,1.42-5.2,4.34-6.53,9.81
		c-0.29,1.18,8.57,0.05,12.57-1.8c1.16-2.26,1.25-1.89-1.41-3.21c-1.04-0.52-0.71-2.41-0.12-2.41c0,0.22,3.35,2.89,4.46,1.36
		c1.74-4.08,8.74-19.65,11.77-24.5c1.96-7.04-3.37-22.31-1.17-26.25c6.58-1.78,11.2-4.89,15.28-8.46
		c14.46-12.66,14.33-33.93,1.32-47c-0.96-0.97-1.81-1.88-3.12-2.73c-15.85-3.43-27.15-10.92-29.6-23.17
		c-0.87-4.36-0.62-6.67,0.31-11.29c-2.35,2.31-3.56,8.57-2.42,12.37c-8.84,0-3.36-8.8-10.96-12.95c-0.75-0.41-4.58-1.26-8.2-1.85
		c-1.06-0.17-1.38-0.66-1.36-1.49c0.01-0.56,0.58-0.67,1.28-0.37c1.39,0.6,22.11,6.26,41.57-13.21C537.77,54,541.22,36.55,544,25.58
		c0.88-3.49,2.38-5.08,8.36-0.77c9.13,6.58,32.95,41.69,32.95,81.73c0,24.31-4.58,38.75-7.75,46.72c-0.77,1.94,0.4,2.08,1.19,0.27
		C583.4,142.87,587.32,129.01,587.32,106.95"/>
</g>
</svg>
